# xmcd
#
# Track frame offsets:
#	150
#	14128
#	29953
#	47387
#	61738
#	77557
#	96583
#	113746
#	132703
#	149854
#	161333
#	179989
#	195506
#	211036
#	225240
#	243047
#	261504
#	273462
#	287855
#	304768
#	321484
#
# Disc length: 4571 seconds
#
# Revision: 1
# Processed by: cddbd v1.5.2PL0 Copyright (c) Steve Scherf et al.
# Submitted via: audiograbber 1.83.01
#
DISCID=4311d915
DTITLE=Various Artist - CDX Volume 571 (May 27, 2013)
DYEAR=2013
DGENRE=Country
TTITLE0=Chris Young - Aw Naw [Single Edit]
TTITLE1=Andy Gibson - Best Thing
TTITLE2=Dierks Bentley - Bourbon In Kentucky 
TTITLE3=Jana Kramer - I Hope It Rains
TTITLE4=Keith Urban - Little Bit Of Everything 
TTITLE5=Kellie Pickler - Someone Somewhere Tonight
TTITLE6=David Nail - Whatever She's Got  [Radio Edit]
TTITLE7=Bobby Bare - Lookout Mountain 
TTITLE8=Aaron Watson - Summertime Girl
TTITLE9=Sammy Kershaw - The Route That I Took (My Tribute To George Jones)
TTITLE10=Debbie Cochran - When You're Loving Me
TTITLE11=Jordan Anderson - You Ain't Ready For Me
TTITLE12=Sherry Lynn (featuring Crystal Gayle) - Beautiful Life 
TTITLE13=Belles and Whistles - Boy Like You
TTITLE14=Joe - Final Curtain Call 
TTITLE15=George Marshall - Four Right Turns
TTITLE16=Colby Dee - He Don't Know
TTITLE17=Trae Edwards - Killing Myself To Stay Alive 
TTITLE18=Hannah Michelle Weeks - More Than One Kind Of Love
TTITLE19=Ry Bradley - New Kind Of Lonely
TTITLE20=Verlan Brock - Who Will Replace The Possum
EXTD=
EXTT0=
EXTT1=
EXTT2=
EXTT3=
EXTT4=
EXTT5=
EXTT6=
EXTT7=
EXTT8=
EXTT9=
EXTT10=
EXTT11=
EXTT12=
EXTT13=
EXTT14=
EXTT15=
EXTT16=
EXTT17=
EXTT18=
EXTT19=
EXTT20=
PLAYORDER=
